<svg xmlns="http://www.w3.org/2000/svg" xmlns:xlink="http://www.w3.org/1999/xlink" width="310.14" height="84.98" viewBox="0 0 310.14 84.98">
  <defs>
    <filter id="Path_202" x="0" y="0" width="216.9" height="84.06" filterUnits="userSpaceOnUse">
      <feOffset dy="3" input="SourceAlpha"/>
      <feGaussianBlur stdDeviation="3" result="blur"/>
      <feFlood flood-opacity="0.161"/>
      <feComposite operator="in" in2="blur"/>
      <feComposite in="SourceGraphic"/>
    </filter>
    <filter id="Path_207" x="232.14" y="6.98" width="78" height="78" filterUnits="userSpaceOnUse">
      <feOffset dy="3" input="SourceAlpha"/>
      <feGaussianBlur stdDeviation="3" result="blur-2"/>
      <feFlood flood-opacity="0.345"/>
      <feComposite operator="in" in2="blur-2"/>
      <feComposite in="SourceGraphic"/>
    </filter>
    <filter id="Path_199" x="210.139" y="5.498" width="35.122" height="79.447" filterUnits="userSpaceOnUse">
      <feOffset dy="3" input="SourceAlpha"/>
      <feGaussianBlur stdDeviation="3" result="blur-3"/>
      <feFlood flood-opacity="0.161"/>
      <feComposite operator="in" in2="blur-3"/>
      <feComposite in="SourceGraphic"/>
    </filter>
  </defs>
  <g id="logo-cleanup" transform="translate(-752.86 -688.02)">
    <g transform="matrix(1, 0, 0, 1, 752.86, 688.02)" filter="url(#Path_202)">
      <path id="Path_202-2" data-name="Path 202" d="M22.68,1.08q-8.19,0-13.005-5.76T4.86-21.42a27.247,27.247,0,0,1,1.53-9.405,21.861,21.861,0,0,1,4.185-7.155,18.325,18.325,0,0,1,6.12-4.545A17.731,17.731,0,0,1,24.12-44.1a16.144,16.144,0,0,1,6.93,1.4A35.9,35.9,0,0,1,37.44-38.7l-.18-8.1V-64.98h2.7V0H37.62l-.36-5.76h-.18a29.979,29.979,0,0,1-6.3,4.77A15.954,15.954,0,0,1,22.68,1.08Zm.18-2.52a14.655,14.655,0,0,0,7.245-1.935A33.38,33.38,0,0,0,37.26-9V-35.64a27.059,27.059,0,0,0-6.8-4.59,16.192,16.192,0,0,0-6.525-1.35,13.434,13.434,0,0,0-6.39,1.575,16.05,16.05,0,0,0-5.13,4.32A21.582,21.582,0,0,0,9-29.25a24.065,24.065,0,0,0-1.26,7.83,31.072,31.072,0,0,0,.99,8.145,19.069,19.069,0,0,0,2.925,6.3A13.407,13.407,0,0,0,16.38-2.88,13.938,13.938,0,0,0,22.86-1.44ZM68.22,1.08A16.516,16.516,0,0,1,63.45.4a11.347,11.347,0,0,1-3.96-2.07,9.661,9.661,0,0,1-2.7-3.6,12.783,12.783,0,0,1-.99-5.265q0-7.2,6.84-10.935T84.06-26.82a28.364,28.364,0,0,0-.315-5.265,14.187,14.187,0,0,0-1.575-4.77,9.2,9.2,0,0,0-3.285-3.42A10.233,10.233,0,0,0,73.44-41.58a18.917,18.917,0,0,0-4.41.5,21.716,21.716,0,0,0-3.87,1.305,30.437,30.437,0,0,0-3.285,1.71A21.725,21.725,0,0,0,59.4-36.36l-1.44-2.16q.99-.72,2.565-1.71a25.143,25.143,0,0,1,3.6-1.845,28.749,28.749,0,0,1,4.455-1.44,21.46,21.46,0,0,1,5.04-.585,13.614,13.614,0,0,1,6.3,1.305,10.82,10.82,0,0,1,4.05,3.555,14.545,14.545,0,0,1,2.16,5.175,29.22,29.22,0,0,1,.63,6.165V0H84.42l-.36-5.76h-.18A47.057,47.057,0,0,1,76.5-.99,17.641,17.641,0,0,1,68.22,1.08Zm.18-2.52a16.905,16.905,0,0,0,7.65-1.845A40.753,40.753,0,0,0,84.06-8.82V-24.48a94.481,94.481,0,0,0-11.97,2.025,30.908,30.908,0,0,0-7.83,2.925,11.4,11.4,0,0,0-4.275,3.915A9.62,9.62,0,0,0,58.68-10.62a10.681,10.681,0,0,0,.765,4.275A7.273,7.273,0,0,0,61.56-3.51a8.684,8.684,0,0,0,3.1,1.575A13.7,13.7,0,0,0,68.4-1.44ZM104.58,0V-43.02h2.34l.36,8.1h.18a22.969,22.969,0,0,1,5.22-6.57,10.506,10.506,0,0,1,7.02-2.61,11.556,11.556,0,0,1,2.07.18,7.758,7.758,0,0,1,2.07.72l-.72,2.52a9.408,9.408,0,0,0-1.8-.585,11.306,11.306,0,0,0-1.98-.135,10.159,10.159,0,0,0-6.21,2.565q-3.24,2.565-5.85,8.955V0ZM144.9,1.08a11.65,11.65,0,0,1-4.9-.9,7.808,7.808,0,0,1-3.1-2.52,9.82,9.82,0,0,1-1.62-3.915,26.5,26.5,0,0,1-.45-5.085V-40.5h-6.84v-2.16l6.84-.36.36-12.6h2.34v12.6H150.3v2.52H137.52v29.52a21.688,21.688,0,0,0,.315,3.825A8.2,8.2,0,0,0,138.96-4.14a5.508,5.508,0,0,0,2.3,1.98,8.787,8.787,0,0,0,3.825.72,9.967,9.967,0,0,0,2.79-.45,25.012,25.012,0,0,0,2.79-.99l.9,2.34A31.388,31.388,0,0,1,147.825.63,13.117,13.117,0,0,1,144.9,1.08Zm27.18,0a21.535,21.535,0,0,1-8.82-1.755,28.323,28.323,0,0,1-6.84-4.185l1.8-2.16a28.47,28.47,0,0,0,5.94,3.96,18.033,18.033,0,0,0,8.1,1.62,13.717,13.717,0,0,0,4.77-.765,10.041,10.041,0,0,0,3.42-2.025,8.674,8.674,0,0,0,2.07-2.925,8.642,8.642,0,0,0,.72-3.465,6.872,6.872,0,0,0-.99-3.735,11.086,11.086,0,0,0-2.52-2.79,14.6,14.6,0,0,0-3.465-2.025q-1.935-.81-3.825-1.53-2.52-.9-4.995-1.89a24.46,24.46,0,0,1-4.5-2.34,11.422,11.422,0,0,1-3.285-3.285,8.475,8.475,0,0,1-1.26-4.725,10.878,10.878,0,0,1,.855-4.275,9.9,9.9,0,0,1,2.565-3.555,12.628,12.628,0,0,1,4.23-2.43,17.37,17.37,0,0,1,5.85-.9,17.626,17.626,0,0,1,6.39,1.215,20.273,20.273,0,0,1,5.49,3.105l-1.62,2.16a27.556,27.556,0,0,0-4.59-2.79,13.384,13.384,0,0,0-5.85-1.17,13.7,13.7,0,0,0-4.68.72,9.045,9.045,0,0,0-3.24,1.935,8.175,8.175,0,0,0-1.89,2.7,7.871,7.871,0,0,0-.63,3.1,6.093,6.093,0,0,0,.9,3.375,8.735,8.735,0,0,0,2.385,2.43,19.55,19.55,0,0,0,3.33,1.845q1.845.81,3.825,1.53,2.52.99,5.13,1.98a21.7,21.7,0,0,1,4.635,2.385,11.626,11.626,0,0,1,3.33,3.51,9.858,9.858,0,0,1,1.3,5.265,11.111,11.111,0,0,1-.945,4.5,11.21,11.21,0,0,1-2.7,3.78,13.223,13.223,0,0,1-4.41,2.61A17.036,17.036,0,0,1,172.08,1.08Zm28.44,0a3.253,3.253,0,0,1-2.25-.9,3.233,3.233,0,0,1-.99-2.52,3.468,3.468,0,0,1,.99-2.7,3.253,3.253,0,0,1,2.25-.9,3.253,3.253,0,0,1,2.25.9,3.468,3.468,0,0,1,.99,2.7,3.233,3.233,0,0,1-.99,2.52A3.253,3.253,0,0,1,200.52,1.08Z" transform="translate(4.14 70.98)" fill="#303030"/>
    </g>
    <g transform="matrix(1, 0, 0, 1, 752.86, 688.02)" filter="url(#Path_207)">
      <path id="Path_207-2" data-name="Path 207" d="M30,0A30,30,0,1,1,0,30,30,30,0,0,1,30,0Z" transform="translate(241.14 12.98)" fill="#303030"/>
    </g>
    <path id="Path_206" data-name="Path 206" d="M23,0A23,23,0,1,1,0,23,23,23,0,0,1,23,0Z" transform="translate(1001 708)" fill="#e24a4e"/>
    <path id="Path_205" data-name="Path 205" d="M16,0A16,16,0,1,1,0,16,16,16,0,0,1,16,0Z" transform="translate(1008 715)" fill="#f8deba"/>
    <path id="Path_204" data-name="Path 204" d="M9,0A9,9,0,1,1,0,9,9,9,0,0,1,9,0Z" transform="translate(1015 722)" fill="#5ca783"/>
    <path id="Path_203" data-name="Path 203" d="M0,0H3V26H0Z" transform="translate(979 723)" fill="#f9dfbc"/>
    <path id="Path_200" data-name="Path 200" d="M0,2.239,7,0V14L0,9.9Z" transform="translate(973 701)" fill="#e24a4e"/>
    <path id="Path_201" data-name="Path 201" d="M7,2.239,0,0V14L7,9.9Z" transform="translate(981 701)" fill="#5ca783"/>
    <g transform="matrix(1, 0, 0, 1, 752.86, 688.02)" filter="url(#Path_199)">
      <path id="Path_199-2" data-name="Path 199" d="M-3827.011,3980.431v-3.746a1.231,1.231,0,0,0-.1-.485,1.225,1.225,0,0,0-.268-.4,1.237,1.237,0,0,0-.4-.269,1.24,1.24,0,0,0-.234-.072l-.43-.087-.429.087a1.222,1.222,0,0,0-.234.073,1.238,1.238,0,0,0-.4.269,1.235,1.235,0,0,0-.268.4,1.234,1.234,0,0,0-.1.486v3.746h2.854m-2.14-14.342v-13.351l-4.914,1.656a6.412,6.412,0,0,0-.764.331,2.872,2.872,0,0,0-.515.335.853.853,0,0,0-.2.228.185.185,0,0,0-.026.1v6.623a.011.011,0,0,1,.01-.008,5,5,0,0,0,.752.514,9.458,9.458,0,0,1,1.095.742l4.565,2.833m.714,46.359a.714.714,0,0,1-.713-.713v-10.613c0-.021,0-.038,0-.054a2.665,2.665,0,0,1-.85-.331,2.687,2.687,0,0,1-.679-.587,2.663,2.663,0,0,1-.45-.783,2.677,2.677,0,0,1-.163-.921v-21.761a2.662,2.662,0,0,1,.21-1.041,2.678,2.678,0,0,1,.573-.851,2.665,2.665,0,0,1,.85-.573,2.627,2.627,0,0,1,.507-.157v-6.294l-5.4-3.354a7.625,7.625,0,0,0-1-.684,5.655,5.655,0,0,1-1-.709,1.549,1.549,0,0,1-.321-.426,1.157,1.157,0,0,1-.121-.523v-6.688a1.612,1.612,0,0,1,.2-.775,2.267,2.267,0,0,1,.532-.636,4.2,4.2,0,0,1,.779-.513,7.832,7.832,0,0,1,.938-.408l6.089-2.053,6.141,2.053a6.946,6.946,0,0,1,1.023.41,3.553,3.553,0,0,1,.769.513,2.036,2.036,0,0,1,.485.635,1.793,1.793,0,0,1,.168.774v6.688a1.4,1.4,0,0,1-.48,1.064,6.418,6.418,0,0,1-1.183.8c-.253.147-.514.3-.783.475l-5.4,3.325v6.323a2.628,2.628,0,0,1,.506.157,2.664,2.664,0,0,1,.851.573,2.677,2.677,0,0,1,.573.851,2.658,2.658,0,0,1,.21,1.041v21.761a2.669,2.669,0,0,1-.163.921,2.67,2.67,0,0,1-.45.783,2.687,2.687,0,0,1-.679.587,2.665,2.665,0,0,1-.85.331c0,.02,0,.037,0,.054v10.613A.714.714,0,0,1-3828.438,4012.448Zm-1.427-17.748v3.746a1.328,1.328,0,0,0,.391.946,1.327,1.327,0,0,0,.946.392h.178a1.326,1.326,0,0,0,.946-.392,1.326,1.326,0,0,0,.392-.946V3994.7Zm0-6.421v4.995h2.854v-4.995Zm0-6.421v4.994h2.854v-4.994Zm2.14-29.11v13.324l6.421-3.9v-7.281Z" transform="translate(4056.14 -3939.5)" fill="#303030"/>
    </g>
  </g>
</svg>
